<?xml version="1.0" encoding="utf-8"?><!-- Uploaded to: SVG Repo, www.svgrepo.com, Generator: SVG Repo Mixer Tools -->
<svg fill="#000000" width="800px" height="800px" viewBox="0 0 24 24" id="file-reload" data-name="Flat Color" xmlns="http://www.w3.org/2000/svg" class="icon flat-color"><path id="secondary" d="M21,10a1,1,0,0,0-1,1v1.27A5.49,5.49,0,1,0,20.78,20a1,1,0,1,0-1.56-1.26A3.45,3.45,0,0,1,16.5,20a3.5,3.5,0,1,1,2.44-6H17a1,1,0,0,0,0,2h4a1,1,0,0,0,1-1V11A1,1,0,0,0,21,10Z" style="fill: rgb(44, 169, 188);"></path><path id="primary" d="M10,16.5A6.51,6.51,0,0,1,16.5,10a6.69,6.69,0,0,1,1.5.18V7.41A2,2,0,0,0,17.41,6L14,2.59A2,2,0,0,0,12.59,2H4A2,2,0,0,0,2,4V19a2,2,0,0,0,2,2h7.83A6.49,6.49,0,0,1,10,16.5Z" style="fill: rgb(0, 0, 0);"></path></svg>